<?xml version="1.0" encoding="UTF-8"?>
<svg id="Ebene_1" data-name="Ebene 1" xmlns="http://www.w3.org/2000/svg" viewBox="0 0 416.62 510.68">
  <defs>
    <style>
      .cls-1 {
        fill: #fff;
      }

      .cls-2 {
        stroke: #000;
      }

      .cls-2, .cls-3, .cls-4 {
        fill: none;
        stroke-miterlimit: 10;
        stroke-width: 13px;
      }

      .cls-5 {
        fill: #06ff5f;
      }

      .cls-3 {
        stroke: red;
      }

      .cls-4 {
        stroke: #cecece;
      }
    </style>
  </defs>
  <g>
    <path class="cls-5" d="m248.32,499.2c51.3-64.2,168.3-219.8,168.3-307.2C416.62,86,330.62,0,224.62,0S32.62,86,32.62,192c0,87.4,117,243,168.3,307.2,12.3,15.3,35.1,15.3,47.4,0h0Zm-23.7-371.2c35.35,0,64,28.65,64,64s-28.65,64-64,64-64-28.65-64-64,28.65-64,64-64Z"/>
    <g>
      <path class="cls-3" d="m29.96,213.25c37.17,31.41,89.18,69.11,156.71,101.65,59.32,28.58,113.93,45.14,157.65,55.06"/>
      <path class="cls-4" d="m25.39,225.68c37.12,31.46,89.08,69.24,156.57,101.87,59.28,28.67,113.87,45.3,157.57,55.28"/>
      <path class="cls-2" d="m29.07,244.92c37.52,30.98,89.96,68.09,157.86,99.85,59.65,27.9,114.44,43.83,158.27,53.26"/>
    </g>
  </g>
  <rect class="cls-1" x="330.78" y="369.54" width="34.91" height="43.92" transform="translate(271.53 -126.82) rotate(33.23)"/>
  <path class="cls-1" d="m21.68,284.58c10.83-3.71,21.66-7.42,32.49-11.13-3.61-8.4-6.45-15.8-8.61-21.77-1.84-5.08-4.78-13.27-7.89-24.28-2.28-8.09-3.92-15.07-5.06-20.43-10.87,3.63-21.74,7.26-32.62,10.9l21.68,66.72Z"/>
</svg>