<?xml version="1.0" encoding="utf-8"?>
<!-- Generator: Adobe Illustrator 27.1.0, SVG Export Plug-In . SVG Version: 6.00 Build 0)  -->
<svg version="1.1" id="Ebene_1" xmlns="http://www.w3.org/2000/svg" xmlns:xlink="http://www.w3.org/1999/xlink" x="0px" y="0px"
	 viewBox="0 0 384 512" style="enable-background:new 0 0 384 512;" xml:space="preserve">
<path d="M146,74c51.6-19,65.1-19.6,67-16c2.8,5.4-21.6,17.1-44,49c-4.1,5.9-22.5,32.9-30,73c-4.8,25.7-3.1,46.1-2,58
	c1.2,12.8,3,31.8,12,55c4.6,11.9,13.5,31.2,30,51c22.2,26.7,46.3,39.9,58.9,46.7c39.9,21.4,78,25.7,101.1,26.3
	c-14.1,10.8-44.5,31-88,37c-8.6,1.2-40.2,4.9-78-6c-63.1-18.2-127.2-72.6-144-148c-8.6-38.6-2.6-72.9,3-93c2.3-8.4,11.7-40.1,38-73
	C96.8,100.5,127.7,82.7,146,74z M206.8,32.7C91.1,41.2,0,137.9,0,256c0,123.7,100,224,223.5,224c47.8,0,92-15,128.4-40.6
	c1.9-1.3,3.7-2.7,5.5-4c4.8-3.6,9.4-7.4,13.9-11.4c2.7-2.4,5.3-4.8,7.9-7.3c5-4.9,6.3-12.5,3.1-18.7s-10.1-9.7-17-8.5
	c-3.7,0.6-7.4,1.2-11.1,1.6c-5,0.5-10.1,0.9-15.3,1c-1.2,0-2.5,0-3.7,0c-0.1,0-0.2,0-0.3,0c-96.8-0.2-175.2-78.9-175.2-176
	c0-54.8,24.9-103.7,64.1-136c1-0.9,2.1-1.7,3.2-2.6c4-3.2,8.2-6.2,12.5-9c3.1-2,6.3-4,9.6-5.8c6.1-3.5,9.2-10.5,7.7-17.3
	c-1.5-6.8-7.3-11.9-14.3-12.5c-3.6-0.3-7.1-0.5-10.7-0.6c-2.7-0.1-5.5-0.1-8.2-0.1c-3.3,0-6.5,0.1-9.8,0.2c-2.3,0.1-4.6,0.2-6.9,0.4
	L206.8,32.7z"/>
</svg>
